<?xml version="1.0" ?><!DOCTYPE svg  PUBLIC '-//W3C//DTD SVG 1.1//EN'  'http://www.w3.org/Graphics/SVG/1.1/DTD/svg11.dtd'><svg height="32px" id="Layer_1" style="enable-background:new 0 0 32 32;" version="1.1" viewBox="0 0 32 32" width="32px" xml:space="preserve" xmlns="http://www.w3.org/2000/svg" xmlns:xlink="http://www.w3.org/1999/xlink"><path d="M30,10h-9.031L18,1.672C17.641,0.422,16.813,0,16,0s-1.641,0.422-2,1.672L11.031,10H2c-1.141,0-2,0.938-2,2  c0,0.859,0.438,1.359,1.19,2l6.623,5l-3.208,9C4.234,28.922,4,29.484,4,30c0,0.984,0.766,2,2,2c0.719,0,1.016-0.25,2-0.895l8-6.021  l8,6.021C24.984,31.75,25.281,32,26,32c1.234,0,2-1.016,2-2c0-0.516-0.234-1.078-0.605-2l-3.208-9l6.623-5  c0.753-0.641,1.19-1.141,1.19-2C32,10.938,31.141,10,30,10z M19.433,17.577l2.477,6.948L16,20.077l-5.909,4.448l2.477-6.948  L7.829,14h6.022L16,7.974L18.148,14h6.022L19.433,17.577z"/></svg>